<mxfile host="app.diagrams.net" modified="2024-06-14T10:09:37.536Z" agent="Mozilla/5.0 (Windows NT 10.0; Win64; x64) AppleWebKit/537.36 (KHTML, like Gecko) Chrome/109.0.0.0 Safari/537.36" version="24.5.4" etag="7vR40ECJ6sSQIupJ_2eD" type="github">
  <diagram name="Page-1" id="TZSCoD3dUOtqT1MIAgJ_">
    <mxGraphModel>
      <root>
        <mxCell id="0" />
        <mxCell id="1" parent="0" />
      </root>
    </mxGraphModel>
  </diagram>
</mxfile>
